<svg width="60" height="61" viewBox="0 0 60 61" fill="none" xmlns="http://www.w3.org/2000/svg">
<path d="M40.4792 19.7801H36.2057L35.8204 18.6242C35.7387 18.379 35.5052 18.2039 35.2366 18.2039H33.2283V16.7327C33.2283 15.2381 32.014 14.0238 30.5195 14.0238H29.4686C27.9974 14.0238 26.7831 15.2381 26.7831 16.7327V18.2155H24.7748C24.5063 18.2155 24.2727 18.379 24.191 18.6359L23.8057 19.7918H19.5322C18.9017 19.7918 18.3997 20.3056 18.3997 20.9244V46.5652C18.3997 47.1957 18.9134 47.6977 19.5322 47.6977H40.4675C41.098 47.6977 41.6001 47.184 41.6001 46.5652V20.9127C41.6118 20.2939 41.098 19.7801 40.4792 19.7801ZM28.0091 18.8227V16.7327C28.0091 15.9153 28.6746 15.2498 29.492 15.2498H30.5428C31.3602 15.2498 32.0257 15.9153 32.0257 16.7327V18.8227C32.0257 19.1613 32.2942 19.4298 32.6329 19.4298H34.8046L35.4468 21.3447H24.5763L25.2185 19.4298H27.3903C27.7289 19.4298 28.0091 19.1613 28.0091 18.8227ZM23.1518 21.7651C23.0935 21.9519 23.1168 22.1504 23.2336 22.3139C23.3503 22.4773 23.5371 22.5707 23.724 22.5707H36.2875C36.486 22.5707 36.6728 22.4773 36.7779 22.3139C36.8946 22.1504 36.9297 21.9519 36.8596 21.7651L36.6027 20.9944H40.3741V46.4601H19.6257V21.0061H23.397L23.1518 21.7651Z" fill="black"/>
<path d="M30.0057 18.3907C30.3443 18.3907 30.6128 18.1221 30.6128 17.7835V16.7326C30.6128 16.394 30.3443 16.1255 30.0057 16.1255C29.6671 16.1255 29.3985 16.394 29.3985 16.7326V17.7835C29.3985 18.1104 29.6787 18.3907 30.0057 18.3907Z" fill="black"/>
<path d="M21.634 29.3779H26.8649C27.2035 29.3779 27.472 29.1093 27.472 28.7707V25.6298C27.472 25.2912 27.2035 25.0227 26.8649 25.0227H21.634C21.2954 25.0227 21.0268 25.2912 21.0268 25.6298V28.7707C21.0268 29.0977 21.2954 29.3779 21.634 29.3779ZM22.2528 28.1519V26.237H26.2694V28.1519H22.2528Z" fill="black"/>
<path d="M29.4919 27.8016H38.3891C38.7277 27.8016 38.9963 27.5331 38.9963 27.1945C38.9963 26.8558 38.7277 26.5873 38.3891 26.5873H29.4919C29.1533 26.5873 28.8848 26.8558 28.8848 27.1945C28.8848 27.5331 29.1533 27.8016 29.4919 27.8016Z" fill="black"/>
<path d="M21.634 36.6988H26.8649C27.2035 36.6988 27.472 36.4303 27.472 36.0917V32.9508C27.472 32.6122 27.2035 32.3436 26.8649 32.3436H21.634C21.2954 32.3436 21.0268 32.6122 21.0268 32.9508V36.0917C21.0268 36.4303 21.2954 36.6988 21.634 36.6988ZM22.2528 35.4845V33.5696H26.2694V35.4845H22.2528Z" fill="black"/>
<path d="M29.4919 35.1342H38.3891C38.7277 35.1342 38.9963 34.8657 38.9963 34.5271C38.9963 34.1885 38.7277 33.9199 38.3891 33.9199H29.4919C29.1533 33.9199 28.8848 34.1885 28.8848 34.5271C28.8848 34.8657 29.1533 35.1342 29.4919 35.1342Z" fill="black"/>
<path d="M21.634 44.0314H26.8649C27.2035 44.0314 27.472 43.7629 27.472 43.4243V40.2834C27.472 39.9448 27.2035 39.6762 26.8649 39.6762H21.634C21.2954 39.6762 21.0268 39.9448 21.0268 40.2834V43.4243C21.0268 43.7512 21.2954 44.0314 21.634 44.0314ZM22.2528 42.8054V40.8906H26.2694V42.8054H22.2528Z" fill="black"/>
<path d="M29.4919 42.4551H38.3891C38.7277 42.4551 38.9963 42.1866 38.9963 41.848C38.9963 41.5094 38.7277 41.2408 38.3891 41.2408H29.4919C29.1533 41.2408 28.8848 41.5094 28.8848 41.848C28.8848 42.1866 29.1533 42.4551 29.4919 42.4551Z" fill="black"/>
</svg>
