<svg width="61" height="61" viewBox="0 0 61 61" fill="none" xmlns="http://www.w3.org/2000/svg">
<path d="M45.2434 21.9872H39.4016V20.5066C39.4016 18.3209 37.6188 16.5381 35.4331 16.5381H25.6228C23.4371 16.5381 21.6544 18.3209 21.6544 20.5066V21.9872H15.8125C14.8254 21.9872 14.0297 22.7929 14.0297 23.7699V34.6781C14.0297 35.3933 14.4628 36.0379 15.1175 36.3199V43.4007C15.1175 44.3877 15.9233 45.1834 16.9003 45.1834H44.1556C45.1427 45.1834 45.9384 44.3777 45.9384 43.4007V36.3199C46.5931 36.0479 47.0262 35.3933 47.0262 34.6781V23.78C47.0363 22.7929 46.2305 21.9872 45.2434 21.9872ZM23.0443 20.567C23.0443 19.0965 24.2329 17.9079 25.7034 17.9079H35.3425C36.813 17.9079 38.0015 19.0965 38.0015 20.567V21.9872H23.0443V20.567ZM44.5485 43.4007C44.5485 43.6222 44.3672 43.7935 44.1556 43.7935H16.9003C16.6787 43.7935 16.5075 43.6122 16.5075 43.4007V36.4609H20.0227V37.9415C20.0227 38.3243 20.3349 38.6365 20.7177 38.6365H22.8932C23.276 38.6365 23.5882 38.3243 23.5882 37.9415V36.4609H37.4576V37.9415C37.4576 38.3243 37.7699 38.6365 38.1526 38.6365H40.3282C40.711 38.6365 41.0232 38.3243 41.0232 37.9415V36.4609H44.5384V43.4007H44.5485ZM21.2011 37.4379V34.5472C21.2011 34.4263 21.2716 34.3155 21.3925 34.235C21.5033 34.1544 21.6745 34.1141 21.8054 34.1141C22.1378 34.1141 22.4098 34.3155 22.4098 34.5573V37.448H21.2011V37.4379ZM38.6462 37.4379V34.5472C38.6462 34.4263 38.7167 34.3155 38.8375 34.235C38.9483 34.1544 39.1196 34.1141 39.2505 34.1141C39.5829 34.1141 39.8548 34.3155 39.8548 34.5573V37.448H38.6462V37.4379ZM45.6363 34.6781C45.6363 34.8997 45.455 35.0709 45.2434 35.0709H41.0333V34.6781C41.0333 33.7011 40.2275 32.8954 39.2505 32.8954C38.2634 32.8954 37.4677 33.7011 37.4677 34.6781V35.0709H23.5882V34.6781C23.5882 33.6911 22.7825 32.8954 21.8054 32.8954C20.8284 32.9054 20.0227 33.7011 20.0227 34.6781V35.0709H15.8125C15.5909 35.0709 15.4197 34.8896 15.4197 34.6781V23.78C15.4197 23.5584 15.601 23.3872 15.8125 23.3872H45.2535C45.4751 23.3872 45.6463 23.5685 45.6463 23.78V34.6781H45.6363Z" fill="black"/>
</svg>
