<svg width="60" height="61" viewBox="0 0 60 61" fill="none" xmlns="http://www.w3.org/2000/svg">
<path d="M42.5134 16.5346C41.7948 15.816 40.8331 15.4181 39.8051 15.407H22.6269C20.5266 15.407 18.8022 17.1204 18.8022 19.2318V20.6136H17.2877C16.7792 20.6136 16.3702 21.0226 16.3702 21.5311C16.3702 22.0395 16.7792 22.4486 17.2877 22.4486H18.8022V26.826H17.2877C16.7792 26.8371 16.3702 27.2461 16.3702 27.7546C16.3702 28.263 16.7792 28.672 17.2877 28.672H18.8022V33.0495H17.2877C16.7792 33.0495 16.3702 33.4696 16.3702 33.9781C16.3702 34.4865 16.7792 34.8955 17.2877 34.8955H18.8022V39.273H17.2877C16.7792 39.273 16.3702 39.682 16.3702 40.1905C16.3702 40.699 16.7792 41.108 17.2877 41.108H18.8022V42.4898C18.8022 44.6011 20.5156 46.3145 22.6269 46.3145H39.8051C41.9164 46.3145 43.6298 44.6011 43.6298 42.4898V19.2318C43.6298 18.2148 43.2319 17.2531 42.5134 16.5346ZM20.6482 41.119H22.1516C22.6601 41.119 23.0691 40.71 23.0691 40.2015C23.0691 39.6931 22.6601 39.2841 22.1516 39.2841H20.6482V34.9066H22.1516C22.6601 34.9066 23.0691 34.4976 23.0691 33.9891C23.0691 33.4806 22.6601 33.0716 22.1516 33.0716H20.6482V28.6942H22.1516C22.6601 28.6942 23.0691 28.2852 23.0691 27.7767C23.0691 27.2682 22.6601 26.8592 22.1516 26.8592H20.6482V22.4486H22.1516C22.6601 22.4486 23.0691 22.0395 23.0691 21.5311C23.0691 21.0226 22.6601 20.6136 22.1516 20.6136H20.6482V19.2318C20.6482 18.1374 21.5436 17.242 22.638 17.242H39.8051C40.8994 17.242 41.7838 18.1374 41.7948 19.2318V42.4898C41.7948 43.5841 40.8994 44.4685 39.8051 44.4795H22.638C21.5436 44.4795 20.6593 43.5841 20.6482 42.4898V41.119Z" fill="black"/>
<path d="M31.216 30.6507C33.1615 30.6507 34.7423 29.07 34.7423 27.1245C34.7423 25.1789 33.1615 23.5982 31.216 23.5982C29.2704 23.5982 27.6897 25.1789 27.6897 27.1245C27.6897 29.07 29.2704 30.6507 31.216 30.6507ZM31.216 25.0463C32.3546 25.0463 33.2831 25.9748 33.2831 27.1134C33.2831 28.252 32.3546 29.1805 31.216 29.1805C30.0774 29.1805 29.1488 28.252 29.1488 27.1134C29.1488 25.9748 30.0774 25.0463 31.216 25.0463Z" fill="black"/>
<path d="M26.5511 38.1344H35.8809C36.2788 38.1344 36.6104 37.8138 36.6104 37.4048C36.6104 34.2765 34.2448 31.8225 31.216 31.8225C28.1872 31.8225 25.8216 34.2765 25.8216 37.4048C25.8216 37.8028 26.1532 38.1344 26.5511 38.1344ZM31.216 33.2706C33.2168 33.2706 34.7865 34.6855 35.096 36.6753H27.336C27.6455 34.6966 29.2041 33.2706 31.216 33.2706Z" fill="black"/>
</svg>
