<svg width="60" height="61" viewBox="0 0 60 61" fill="none" xmlns="http://www.w3.org/2000/svg">
<path d="M36.7712 23.9578C34.9839 22.1705 32.5321 21.1967 29.8626 21.1967C24.6496 21.3342 20.4677 25.5275 20.3302 30.729C20.3302 33.8454 21.6592 36.5951 24.0538 38.4626C25.188 39.4594 25.7838 40.6509 25.7838 41.9227V44.787C25.7838 46.4597 26.8952 47.3648 27.9492 47.3648H32.0394C33.1966 47.3648 34.2048 46.3566 34.2048 45.1994V42.0602C34.2048 40.6509 34.9152 39.2188 36.0723 38.3251C38.3523 36.5836 39.6699 33.8568 39.6699 30.8665C39.6699 28.3116 38.6158 25.791 36.7712 23.9578ZM32.6123 43.2632V45.1994C32.6123 45.5431 32.3946 45.7723 32.0394 45.7723H27.9492C27.4451 45.7723 27.3764 45.2109 27.3764 44.7984V43.2632H32.6123ZM38.0773 30.8551C38.0773 33.3069 37.0004 35.564 35.1214 37.0419C33.7122 38.1876 32.7727 39.952 32.6467 41.6592H27.3764C27.3076 39.952 26.4712 38.3595 25.0162 37.1794C23.0455 35.7358 21.9227 33.3871 21.9227 30.7176C22.0602 26.4097 25.7609 22.7778 30 22.7778C32.1655 22.7778 34.1819 23.5912 35.6484 25.0692C37.241 26.6617 38.0773 28.6553 38.0773 30.8551Z" fill="black"/>
<path d="M30.0001 18.6875C30.4698 18.6875 30.8021 18.3553 30.8021 17.8855V15.1587C30.8021 14.689 30.4698 14.3567 30.0001 14.3567C29.5303 14.3567 29.1981 14.689 29.1981 15.1587V17.8855C29.1981 18.3553 29.5303 18.6875 30.0001 18.6875Z" fill="black"/>
<path d="M40.426 19.3062L38.5127 21.2196C38.1919 21.5404 38.1919 22.0216 38.5127 22.3424C38.6846 22.5142 38.9939 22.5142 39.1428 22.5142C39.3032 22.5142 39.5553 22.3882 39.6011 22.3653L41.5374 20.429C41.8582 20.1082 41.8582 19.627 41.5374 19.3062C41.2166 18.9854 40.7468 18.9969 40.426 19.3062Z" fill="black"/>
<path d="M45.6963 30.0645H42.9695C42.4998 30.0645 42.1675 30.3968 42.1675 30.8665C42.1675 31.3363 42.4998 31.6685 42.9695 31.6685H45.6963C46.1661 31.6685 46.4983 31.3363 46.4983 30.8665C46.4983 30.3968 46.1661 30.0645 45.6963 30.0645Z" fill="black"/>
<path d="M39.6355 39.5167C39.3147 39.1959 38.8335 39.1959 38.5127 39.5167C38.1919 39.8375 38.1919 40.3187 38.5127 40.6395L40.426 42.5528C40.5979 42.7247 40.9072 42.7247 41.0562 42.7247C41.3197 42.7247 41.5488 42.7247 41.5718 42.5184C41.8582 42.1976 41.8467 41.7394 41.5374 41.43L39.6355 39.5167Z" fill="black"/>
<path d="M20.2271 39.5167L18.3137 41.43C17.9929 41.7508 17.9929 42.232 18.3137 42.5528C18.4856 42.7247 18.7949 42.7247 18.9439 42.7247C19.0928 42.7247 19.2647 42.7247 19.4365 42.5528L21.3499 40.6395C21.6707 40.3187 21.6707 39.8375 21.3499 39.5167C21.0291 39.1959 20.5479 39.1959 20.2271 39.5167Z" fill="black"/>
<path d="M17.0305 30.0645H14.3037C13.834 30.0645 13.5017 30.3968 13.5017 30.8665C13.5017 31.3363 13.834 31.6685 14.3037 31.6685H17.0305C17.5003 31.6685 17.8325 31.3363 17.8325 30.8665C17.8325 30.3968 17.5003 30.0645 17.0305 30.0645Z" fill="black"/>
<path d="M20.2271 22.3424C20.3989 22.5142 20.7083 22.5142 20.8572 22.5142C21.0405 22.5142 21.2009 22.3538 21.3499 22.2049C21.6707 21.8841 21.6707 21.4029 21.3499 21.0821L19.4365 19.1687C19.1157 18.8594 18.6345 18.8594 18.3137 19.1687C17.9929 19.4895 17.9929 19.9707 18.3137 20.2801L20.2271 22.3424Z" fill="black"/>
<path d="M30.0001 24.5994C29.5303 24.5994 29.1981 24.9317 29.1981 25.4014C29.1981 25.8712 29.5303 26.2034 30.0001 26.2034C32.5321 26.2034 34.6631 28.3345 34.6631 30.8665C34.6631 31.3363 34.9954 31.6685 35.4651 31.6685C35.9349 31.6685 36.2671 31.3363 36.2671 30.8665C36.2557 27.4064 33.4487 24.5994 30.0001 24.5994Z" fill="black"/>
</svg>
