<svg width="60" height="61" viewBox="0 0 60 61" fill="none" xmlns="http://www.w3.org/2000/svg">
<path d="M39.4281 36.5979C39.2181 36.5979 39.0302 36.6753 38.8865 36.83L35.9682 39.8589L34.7964 38.5324C34.6527 38.3666 34.4427 38.2781 34.2327 38.2781C34.0447 38.2781 33.8679 38.3445 33.7352 38.4661C33.5805 38.5987 33.492 38.7866 33.481 38.9856C33.4699 39.1846 33.5363 39.3836 33.6689 39.5383L35.924 42.0808L39.9808 37.8802C40.1245 37.7365 40.2019 37.5486 40.1909 37.3385C40.1909 37.1396 40.1024 36.9516 39.9587 36.8079C39.815 36.6753 39.6271 36.5979 39.4281 36.5979Z" fill="black"/>
<path d="M36.9078 31.5904C36.742 31.5904 36.5872 31.6014 36.4214 31.6125L36.2666 31.6235L35.736 22.537H31.4028V20.6025C31.4028 17.7395 29.0704 15.407 26.2073 15.407C23.3443 15.407 21.0119 17.7395 21.0119 20.6025V22.5259H16.6786L15.728 38.8419C15.6506 40.08 16.0817 41.2628 16.9329 42.1582C17.7841 43.0646 18.9337 43.551 20.1718 43.551H31.1707L31.2149 43.6063C32.6188 45.3307 34.697 46.3145 36.9188 46.3145C40.9757 46.3145 44.2809 43.0093 44.2809 38.9524C44.2809 34.8956 40.9647 31.5904 36.9078 31.5904ZM22.5153 20.6025C22.5153 18.5685 24.1623 16.9215 26.1963 16.9215C28.2303 16.9215 29.8773 18.5685 29.8773 20.6025V22.5259H22.5153V20.6025ZM20.1607 42.0366C19.3427 42.0366 18.58 41.7049 18.0162 41.108C17.4524 40.5111 17.1761 39.7373 17.2203 38.9193L18.0936 24.0293H21.0008V25.5658C21.0008 25.9859 21.3435 26.3175 21.7525 26.3175C22.1615 26.3175 22.5042 25.9748 22.5042 25.5658V24.0404H29.8663V25.5769C29.8663 25.9969 30.209 26.3286 30.618 26.3286C31.027 26.3286 31.3696 25.9859 31.3696 25.5769V24.0404H34.2769L34.7412 31.9109L34.6196 31.9441C31.5686 32.9279 29.5125 35.7467 29.5125 38.9524C29.5125 39.9473 29.7115 40.909 30.0874 41.8155L30.1758 42.0366H20.1607ZM36.9078 44.8001C33.68 44.8001 31.0601 42.1803 31.0601 38.9524C31.0601 35.7246 33.68 33.1048 36.9078 33.1048C40.1356 33.1048 42.7555 35.7246 42.7555 38.9524C42.7555 42.1803 40.1246 44.8001 36.9078 44.8001Z" fill="black"/>
</svg>
