<svg width="60" height="61" viewBox="0 0 60 61" fill="none" xmlns="http://www.w3.org/2000/svg">
<path d="M31.2773 25.9784H20.849V27.8805H31.2773V25.9784Z" fill="black"/>
<path d="M34.5507 30.5788H20.849V32.4698H34.5507V30.5788Z" fill="black"/>
<path d="M34.5507 35.1681H20.849V37.0702H34.5507V35.1681Z" fill="black"/>
<path d="M44.1385 15.4837H16.0274C13.9816 15.4837 12.3228 17.1425 12.3228 19.1884V30.7778C12.3228 32.7463 13.9263 34.3498 15.8947 34.3498C16.4919 34.3498 17.078 34.206 17.5756 33.9295V45.1541C17.5756 45.7512 18.0622 46.2378 18.6594 46.2378H41.5176C42.0263 46.2378 42.4355 45.8286 42.4355 45.32V33.9074C42.9331 34.1728 43.5082 34.3719 44.2048 34.3608C46.118 34.3055 47.6773 32.6357 47.6773 30.6451V19.0225C47.6773 17.0651 46.0848 15.4837 44.1385 15.4837ZM40.5334 24.2864V44.3468H19.4666V24.2753C19.4666 24.0873 19.6215 23.9436 19.7984 23.9436H40.1906C40.3786 23.9436 40.5334 24.0984 40.5334 24.2864ZM16.2596 22.0415V23.9436H17.5756V30.6341C17.5756 31.5519 16.9674 32.326 16.149 32.4477C15.6514 32.5251 15.1759 32.3813 14.811 32.0606C14.446 31.7399 14.2248 31.2755 14.2248 30.7889V19.0335C14.2248 18.1267 14.9658 17.3858 15.8726 17.3858H44.1385C45.0453 17.3858 45.7862 18.1267 45.7862 19.0335V30.7889C45.7862 31.2755 45.5761 31.7399 45.2001 32.0606C44.8241 32.3813 44.3486 32.5251 43.862 32.4477C43.0437 32.326 42.4355 31.5519 42.4355 30.6341V23.9436H43.7514V22.0415H16.2596Z" fill="black"/>
</svg>
