<svg width="61" height="61" viewBox="0 0 61 61" fill="none" xmlns="http://www.w3.org/2000/svg">
<path d="M34.3711 43.6724V35.8725C34.3711 35.5277 34.2342 35.1971 33.9904 34.9533C33.7466 34.7095 33.4159 34.5725 33.0712 34.5725H27.8713C27.5265 34.5725 27.1959 34.7095 26.9521 34.9533C26.7083 35.1971 26.5714 35.5277 26.5714 35.8725V43.6724C26.5714 44.0172 26.4344 44.3478 26.1907 44.5916C25.9469 44.8354 25.6163 44.9724 25.2716 44.9724L17.4727 44.9734C17.302 44.9734 17.1329 44.9398 16.9752 44.8745C16.8175 44.8092 16.6741 44.7134 16.5534 44.5927C16.4327 44.472 16.3369 44.3287 16.2716 44.171C16.2062 44.0132 16.1726 43.8442 16.1726 43.6735V28.6491C16.1726 28.468 16.2104 28.2888 16.2837 28.1232C16.357 27.9576 16.464 27.8091 16.598 27.6872L29.5968 15.8682C29.8361 15.6506 30.1479 15.53 30.4713 15.53C30.7947 15.53 31.1065 15.6506 31.3458 15.8681L44.3463 27.6872C44.4803 27.8091 44.5874 27.9576 44.6607 28.1232C44.7339 28.2889 44.7718 28.468 44.7718 28.6491V43.6735C44.7718 43.8442 44.7382 44.0132 44.6728 44.171C44.6075 44.3287 44.5117 44.472 44.391 44.5927C44.2703 44.7135 44.1269 44.8092 43.9692 44.8745C43.8115 44.9398 43.6424 44.9734 43.4717 44.9734L35.6709 44.9724C35.3262 44.9724 34.9956 44.8354 34.7518 44.5916C34.5081 44.3478 34.3711 44.0172 34.3711 43.6724V43.6724Z" stroke="black" stroke-width="2.5" stroke-linecap="round" stroke-linejoin="round"/>
</svg>
