<svg width="61" height="60" viewBox="0 0 61 60" fill="none" xmlns="http://www.w3.org/2000/svg">
<path d="M44.4976 10.8H15.9568C13.2377 10.8 11.0272 12.8149 11.0272 15.7296V44.2704C11.0272 47.1851 13.2377 49.2 15.9568 49.2H44.4976C47.2167 49.2 49.4272 47.1851 49.4272 44.2704V15.7296C49.4272 12.8149 47.2167 10.8 44.4976 10.8ZM37.2793 16.8055C37.2793 15.847 38.0617 15.0841 39.0007 15.0841H43.3435C44.302 15.0841 45.0649 15.8665 45.0649 16.8055V20.9526C45.0649 21.9112 44.2824 22.6741 43.3435 22.6741H39.0007C38.0422 22.6741 37.2793 21.8916 37.2793 20.9526V16.8055ZM30.2761 22.4589C34.5406 22.4589 37.9835 25.804 37.9835 29.9315C37.9835 34.0591 34.521 37.4042 30.2761 37.4042C26.0116 37.4042 22.5687 34.0591 22.5687 29.9315C22.5687 25.804 26.0116 22.4589 30.2761 22.4589ZM45.0845 43.2727C45.0845 44.1139 44.3998 44.7986 43.5586 44.7986H16.8175C15.9764 44.7986 15.2917 44.1139 15.2917 43.2727V27.0364H18.8128C18.4998 28.0732 18.3238 29.1882 18.3238 30.3228C18.3238 36.7195 23.6642 41.8839 30.2565 41.8839C36.8489 41.8839 42.1893 36.7 42.1893 30.3228C42.1893 29.1882 42.0133 28.0732 41.7003 27.0364H45.0845V43.2727Z" fill="black"/>
</svg>
