<svg width="61" height="60" viewBox="0 0 61 60" fill="none" xmlns="http://www.w3.org/2000/svg">
<path d="M49.6855 48.864L49.7048 34.9085C49.7048 28.0755 48.2378 22.8253 40.2467 22.8253C36.4056 22.8253 33.8384 24.9292 32.7767 26.9366H32.6609V23.4429H25.0945V48.8447H32.9698V36.2789C32.9698 32.9589 33.6067 29.7548 37.6988 29.7548C41.733 29.7548 41.8102 33.538 41.8102 36.4913V48.864H49.6855Z" fill="black"/>
<path d="M20.1724 23.443H12.2778V48.8447H20.1724V23.443Z" fill="black"/>
<path d="M16.2154 10.8C13.6868 10.8 11.6408 12.846 11.6408 15.3746C11.6408 17.9032 13.6868 19.9879 16.2154 19.9879C18.744 19.9879 20.7901 17.9032 20.7901 15.3746C20.7901 12.846 18.744 10.8 16.2154 10.8Z" fill="black"/>
</svg>
