<svg width="60" height="61" viewBox="0 0 60 61" fill="none" xmlns="http://www.w3.org/2000/svg">
<path d="M24.6288 30.0653C25.9509 32.768 28.1417 34.9489 30.8504 36.2586C31.0486 36.3525 31.2678 36.3932 31.4865 36.3767C31.7052 36.3601 31.9158 36.2869 32.0976 36.1642L36.0861 33.5047C36.2625 33.387 36.4654 33.3153 36.6765 33.2959C36.8877 33.2765 37.1003 33.3101 37.2952 33.3936L44.7568 36.5914C45.0103 36.6991 45.2219 36.8862 45.3597 37.1246C45.4976 37.363 45.5543 37.6398 45.5212 37.9132C45.2854 39.7586 44.3849 41.4548 42.9885 42.6842C41.5921 43.9136 39.7955 44.5918 37.935 44.5919C32.1888 44.5919 26.6779 42.3092 22.6147 38.2461C18.5515 34.1829 16.2688 28.672 16.2688 22.9258C16.2689 21.0653 16.9472 19.2687 18.1766 17.8722C19.4059 16.4758 21.1021 15.5754 22.9476 15.3396C23.221 15.3065 23.4977 15.3631 23.7361 15.501C23.9745 15.6389 24.1617 15.8505 24.2693 16.104L27.47 23.5721C27.5528 23.7653 27.5865 23.9759 27.5682 24.1853C27.5498 24.3946 27.48 24.5962 27.3649 24.7721L24.7146 28.8217C24.594 29.0038 24.5226 29.2142 24.5076 29.4322C24.4926 29.6501 24.5344 29.8683 24.6288 30.0653Z" stroke="black" stroke-width="2.5" stroke-linecap="round" stroke-linejoin="round"/>
</svg>
