<svg width="60" height="61" viewBox="0 0 60 61" fill="none" xmlns="http://www.w3.org/2000/svg">
<path d="M32.8163 20.0909H32.0446V33.4409L24.1313 44.1762L24.7533 44.6369C27.1031 46.3762 29.8906 47.2862 32.8278 47.2862C40.3264 47.2862 46.4312 41.1814 46.4312 33.6828C46.4197 26.1842 40.3149 20.0909 32.8163 20.0909ZM32.8163 45.7312C30.5702 45.7312 28.3817 45.1092 26.4926 43.9343L26.3084 43.8191L33.5996 33.9362V21.669L33.8069 21.6805C40.0039 22.1873 44.8647 27.4628 44.8647 33.6828C44.8647 40.329 39.4625 45.7312 32.8163 45.7312Z" fill="black"/>
<path d="M17.37 22.2219L16.8631 22.8093C14.7322 25.2743 13.5688 28.4303 13.5688 31.6901C13.5688 33.8556 14.0872 36.0095 15.0778 37.9216C16.0338 39.7761 17.4276 41.4002 19.0977 42.6442L19.7197 43.1049L28.2204 31.5864L17.37 22.2219ZM19.4087 40.9049L19.2475 40.7667C16.6213 38.4745 15.1238 35.1687 15.1238 31.6901C15.1238 29.1215 15.9186 26.6795 17.4276 24.6062L17.5543 24.4334L26.124 31.8168L19.4087 40.9049Z" fill="black"/>
<path d="M28.7157 14.4353H27.944C24.6612 14.4353 21.5397 15.8636 19.3857 18.3632L18.8789 18.9506L28.7157 27.4398V14.4353ZM27.1607 24.0303L21.0905 18.7894L21.2517 18.6396C22.8067 17.1768 24.8225 16.2438 26.9534 16.0249L27.1722 16.0019V24.0303H27.1607Z" fill="black"/>
</svg>
