<svg width="61" height="60" viewBox="0 0 61 60" fill="none" xmlns="http://www.w3.org/2000/svg">
<path d="M41.4722 34.3337C39.8859 32.7474 38.0466 31.5519 35.989 30.7587C38.2306 29.0114 39.5525 26.3215 39.5525 23.4707C39.5525 18.3783 35.4142 14.24 30.3218 14.24C25.2409 14.24 21.1026 18.3783 21.1026 23.4707C21.1026 26.3215 22.4246 29.0114 24.6662 30.7587C22.6085 31.5519 20.7693 32.7474 19.1829 34.3337C16.2172 37.2995 14.5733 41.2654 14.5733 45.4726V45.76H17.5621V45.4726C17.5621 38.4375 23.2867 32.7014 30.3333 32.7014C37.3684 32.7014 43.1045 38.426 43.1045 45.4726V45.76H46.0933V45.4726C46.0933 41.2654 44.4495 37.2995 41.4722 34.3337ZM36.5752 23.4707C36.5752 26.9078 33.7704 29.7126 30.3333 29.7126C26.8962 29.7126 24.0914 26.9078 24.0914 23.4707C24.0914 20.0336 26.8962 17.2288 30.3333 17.2288C33.7704 17.2288 36.5752 20.0336 36.5752 23.4707Z" fill="black"/>
</svg>
