<svg width="60" height="60" viewBox="0 0 60 60" fill="none" xmlns="http://www.w3.org/2000/svg">
<path d="M31.4405 29.3809V22.5118C31.4405 21.7142 30.7976 21.0713 30 21.0713C29.2024 21.0713 28.5595 21.7142 28.5595 22.5118V30.0952C28.5595 30.5476 28.7738 30.9762 29.1309 31.25L34.1905 35.0476C34.4405 35.2381 34.7381 35.3334 35.0596 35.3334C35.5238 35.3334 35.9405 35.1191 36.2143 34.75C36.4405 34.4405 36.5477 34.0595 36.4881 33.6786C36.4286 33.2976 36.2381 32.9643 35.9286 32.7262L31.4405 29.3809Z" fill="black"/>
<path d="M30 13.4998C20.9047 13.4998 13.4998 20.9047 13.4998 30C13.4998 39.0953 20.9047 46.5002 30 46.5002C39.0953 46.5002 46.5002 39.0953 46.5002 30C46.5002 20.9047 39.0953 13.4998 30 13.4998ZM43.6192 30C43.6192 37.512 37.512 43.6192 30 43.6192C22.488 43.6192 16.3808 37.512 16.3808 30C16.3808 22.488 22.488 16.3808 30 16.3808C37.512 16.3808 43.6192 22.488 43.6192 30Z" fill="black"/>
</svg>
