<svg width="61" height="60" viewBox="0 0 61 60" fill="none" xmlns="http://www.w3.org/2000/svg">
<path d="M48.7426 20.0826L48.7657 21.2893C48.7657 33.6816 39.3544 48 22.1503 48C16.8781 48 11.9527 46.4452 7.8136 43.7532C8.53043 43.846 9.27039 43.8925 10.0335 43.8925C14.427 43.8925 18.4505 42.384 21.6416 39.8545C17.5487 39.7849 14.1032 37.0697 12.9008 33.3335C13.4789 33.4495 14.057 33.4959 14.6582 33.4959C15.5138 33.4959 16.3462 33.3799 17.1093 33.1711C12.8314 32.3124 9.61725 28.5298 9.61725 23.9813V23.8885C10.8659 24.5847 12.2996 25.0024 13.8489 25.0488C11.3515 23.3779 9.70974 20.4771 9.70974 17.2514C9.70974 15.5341 10.1722 13.9097 10.9815 12.5173C15.56 18.2029 22.474 21.9159 30.2436 22.3104C30.0818 21.6374 30.0124 20.918 30.0124 20.1754C30.0124 15.0004 34.1746 10.8 39.3544 10.8C42.0367 10.8 44.4878 11.9371 46.199 13.7472C48.3032 13.3295 50.315 12.5637 52.1418 11.4962C51.4481 13.6776 49.9682 15.5341 48.0258 16.6945C49.9219 16.4624 51.7256 15.9518 53.4136 15.2092C52.1418 17.089 50.5463 18.7598 48.7426 20.0826Z" fill="black"/>
</svg>
