<svg width="40" height="50" viewBox="0 0 40 50" fill="none" xmlns="http://www.w3.org/2000/svg">
<path d="M14.4601 6.31185L15.1496 4.22015C15.2265 3.99308 15.4083 3.81732 15.6385 3.75382L18.028 3.09462L20.7437 2.99788L23.569 1.56602L25.0442 1.15905C25.5954 1.00699 26.0961 1.53178 25.9183 2.07626L23.0932 10.6291L16.7961 13.8561L14.4601 6.31185Z" fill="#4FABF7"/>
<path d="M25.0438 1.15916L23.1244 1.68867C23.6756 1.53661 24.1763 2.0614 23.9985 2.60588L21.1734 11.1587L16.6768 13.4633L16.7989 13.8553L23.0928 10.6292L25.9179 2.07637C26.0957 1.5319 25.595 1.0071 25.0438 1.15916Z" fill="#1886EA"/>
<path d="M16.4134 8.00602L18.0374 3.0921L23.5719 1.5653L20.3272 11.3922L17.5616 12.1552L16.4167 8.00513L16.4134 8.00602Z" fill="#D3DCFB"/>
<path d="M23.5685 1.56602L23.1211 1.68945C23.2638 1.6501 23.4018 1.65736 23.5244 1.69683L23.5685 1.56602Z" fill="#BEC8F7"/>
<path d="M20.3277 11.392L12.7927 4.87038C12.6135 4.71397 12.364 4.65718 12.1338 4.72068L9.73782 5.38167L7.45104 6.47657L4.20332 6.90848L2.7281 7.31545C2.17692 7.46751 2.01616 8.17477 2.45118 8.55019L9.25871 14.4457L15.1236 13.8255L20.3277 11.392Z" fill="#9BD8F9"/>
<path d="M12.7931 4.87019C12.6139 4.71378 12.3644 4.65699 12.1342 4.72049L10.2148 5.25C10.445 5.18649 10.6945 5.24329 10.8769 5.3988L18.4055 11.9222L14.1066 13.9316L15.124 13.8254L20.3249 11.3927L12.7931 4.87019Z" fill="#73C3F9"/>
<path d="M15.1244 13.8253L12.1545 14.1387L12.0284 13.6815L4.2041 6.9082L9.7386 5.38139L17.5629 12.1547L17.6926 12.6248L15.1244 13.8253Z" fill="#E9EFFF"/>
<path d="M13.9639 15.314L19.4984 13.7872L21.0288 19.3346L15.4943 20.8614L13.9639 15.314Z" fill="#FFB332"/>
<path d="M35.0628 29.7961L35.1638 29.6183C35.7132 28.6503 35.3742 27.4215 34.4071 26.8753L34.2292 26.7744C33.5218 26.3729 33.1257 25.582 33.2245 24.7767L33.249 24.5746C33.3847 23.473 32.6007 22.4647 31.4991 22.3289L31.2969 22.3045C30.4875 22.2033 29.8224 21.6262 29.6059 20.8415L29.5505 20.6405C29.2544 19.5673 28.1458 18.9381 27.0726 19.2342L26.8781 19.2879C26.0935 19.5043 25.2561 19.2259 24.7551 18.5861L24.6304 18.4251C23.9491 17.5489 22.6814 17.3927 21.8052 18.0741L21.6442 18.1987C21.0011 18.7006 20.1213 18.7619 19.414 18.3604L19.2361 18.2595C18.2681 17.7101 17.0393 18.0491 16.4932 19.0162L16.3857 19.1958C15.9842 19.9032 15.1934 20.2993 14.3881 20.2005L14.1859 20.176C13.0843 20.0403 12.076 20.8244 11.9403 21.9259L11.9158 22.1281C11.8146 22.9375 11.2375 23.6026 10.4529 23.8191L10.2551 23.8737C9.18194 24.1697 8.55273 25.2783 8.84879 26.3515L8.90246 26.5461C9.11891 27.3307 8.84054 28.1681 8.2007 28.6691L8.03971 28.7937C7.16352 29.4751 7.00735 30.7428 7.68867 31.619L7.81333 31.7799C8.31522 32.423 8.37649 33.3028 7.97502 34.0102L7.87496 34.1913C7.32557 35.1593 7.66457 36.3881 8.63165 36.9342L8.81043 37.0384C9.5178 37.4399 9.91392 38.2308 9.81509 39.0361L9.79061 39.2382C9.65489 40.3398 10.439 41.3481 11.5405 41.4838L11.7427 41.5083C12.5521 41.6095 13.2172 42.1866 13.4337 42.9712L13.4883 43.169C13.7843 44.2422 14.8929 44.8714 15.9661 44.5753L16.1639 44.5208C16.9485 44.3043 17.7859 44.5827 18.2869 45.2225L18.4116 45.3835C19.0929 46.2597 20.3606 46.4159 21.2368 45.7346L21.3978 45.6099C22.0409 45.108 22.9206 45.0467 23.628 45.4482L23.8059 45.5492C24.7739 46.0986 26.0027 45.7596 26.5488 44.7925L26.6498 44.6146C27.0512 43.9072 27.8421 43.5111 28.6474 43.6099L28.8496 43.6344C29.9511 43.7701 30.9595 42.9861 31.0952 41.8845L31.1197 41.6823C31.2209 40.8729 31.798 40.2078 32.5826 39.9913L32.7804 39.9368C33.8535 39.6407 34.4828 38.5321 34.1867 37.4589L34.1321 37.2611C33.9157 36.4765 34.1941 35.6391 34.8339 35.1381L34.9949 35.0135C35.8711 34.3321 36.0272 33.0644 35.3459 32.1882L35.2213 32.0272C34.7259 31.3824 34.6613 30.5035 35.0628 29.7961Z" fill="#FFDD40"/>
<path d="M23.4218 38.82C27.2412 37.7664 29.4833 33.8159 28.4297 29.9965C27.376 26.1771 23.4256 23.935 19.6061 24.9886C15.7867 26.0423 13.5446 29.9927 14.5983 33.8122C15.6519 37.6316 19.6024 39.8737 23.4218 38.82Z" fill="#FFB332"/>
<path d="M21.0985 27.9577L22.3525 29.3667C22.5093 29.5433 22.7432 29.6322 22.9791 29.6021L24.851 29.3683C25.4408 29.2928 25.86 29.9273 25.5592 30.4429L24.6055 32.0702C24.4872 32.2738 24.4762 32.5245 24.5768 32.7375L25.3794 34.4455C25.6323 34.9828 25.158 35.5777 24.5756 35.4523L22.734 35.0497C22.5035 34.9982 22.2635 35.0644 22.0888 35.2277L20.7141 36.5176C20.2817 36.923 19.5694 36.6554 19.5078 36.0653L19.3211 34.1874C19.2983 33.953 19.1603 33.7433 18.9543 33.6292L17.3012 32.721C16.7794 32.4358 16.8141 31.6761 17.3582 31.4353L19.0852 30.6763C19.3 30.5821 19.4584 30.3849 19.5026 30.1529L19.8567 28.3003C19.9715 27.7173 20.7043 27.5152 21.0985 27.9577Z" fill="#FFDD40"/>
<path d="M22.5595 13.7526L11.3186 16.8537C10.6021 17.0513 9.86164 16.6311 9.66397 15.9145L9.25879 14.4458L23.0934 10.6292L23.4986 12.098C23.6963 12.8145 23.276 13.555 22.5595 13.7526Z" fill="#FFDD40"/>
<path d="M21.1776 11.1579L21.572 12.5877C21.776 13.3269 21.3407 14.089 20.6048 14.292L22.5209 13.7634C23.2601 13.5594 23.6912 12.7951 23.4882 12.0591L23.0938 10.6292L21.1776 11.1579Z" fill="#FFB332"/>
<path d="M34.406 26.8723L34.2281 26.7714C33.5207 26.3699 33.1246 25.579 33.2234 24.7737L33.2479 24.5716C33.3836 23.47 32.5996 22.4616 31.498 22.3259L31.2959 22.3014C30.4864 22.2003 29.8213 21.6232 29.6048 20.8385L29.5503 20.6408C29.2542 19.5676 28.1456 18.9384 27.0724 19.2344L26.8779 19.2881C26.0933 19.5046 25.2559 19.2262 24.7549 18.5863L24.6302 18.4253C23.9489 17.5492 22.6812 17.393 21.805 18.0743L21.644 18.199C21.6263 18.2108 21.6119 18.2218 21.5942 18.2336C22.0202 18.3359 22.4186 18.5784 22.7099 18.9516L22.8346 19.1126C23.3365 19.7557 24.173 20.0308 24.9576 19.8144L25.1554 19.7598C26.2285 19.4637 27.3372 20.093 27.6332 21.1661L27.6878 21.3639C27.9042 22.1485 28.5726 22.7247 29.3788 22.8268L29.5809 22.8513C30.6825 22.987 31.4666 23.9953 31.3309 25.0969L31.3064 25.2991C31.2052 26.1085 31.6037 26.8953 32.3111 27.2967L32.4889 27.3977C33.4569 27.9471 33.7959 29.1759 33.2456 30.1406L33.1432 30.3259C32.7417 31.0332 32.8072 31.9154 33.3049 32.5561L33.4296 32.7171C34.1109 33.5933 33.9547 34.861 33.0785 35.5423L32.9175 35.667C32.2745 36.1689 31.9993 37.0054 32.2158 37.79L32.2703 37.9878C32.5664 39.0609 31.9372 40.1696 30.864 40.4656L30.6662 40.5202C29.8816 40.7366 29.3054 41.405 29.2033 42.2112L29.1788 42.4133C29.12 42.8831 28.9024 43.2956 28.5891 43.6018C28.6103 43.6029 28.6283 43.6049 28.6496 43.606L28.8517 43.6305C29.9533 43.7662 30.9616 42.9822 31.0974 41.8806L31.1218 41.6784C31.223 40.869 31.8001 40.2039 32.5847 39.9874L32.7825 39.9329C33.8557 39.6368 34.4849 38.5282 34.1888 37.455L34.1343 37.2572C33.9178 36.4726 34.1962 35.6352 34.836 35.1342L34.997 35.0096C35.8732 34.3282 36.0294 33.0605 35.3481 32.1843L35.2234 32.0233C34.7215 31.3803 34.6603 30.5005 35.0617 29.7931L35.1627 29.6152C35.713 28.6505 35.374 27.4217 34.406 26.8723Z" fill="#FFB332"/>
<path d="M19.6126 24.9871C19.2819 25.0784 18.9616 25.1946 18.6564 25.3277C22.1459 24.8744 25.5228 27.048 26.4852 30.5367C27.4476 34.0253 25.6587 37.6205 22.4345 39.0229C22.7648 38.9806 23.0994 38.9162 23.4301 38.825C27.2495 37.7713 29.4916 33.8208 28.438 30.0015C27.3825 26.1756 23.432 23.9335 19.6126 24.9871Z" fill="#FF9100"/>
</svg>
